<?xml version="1.0" encoding="UTF-8"?>
<svg id="Capa_2" data-name="Capa 2" xmlns="http://www.w3.org/2000/svg" viewBox="0 0 374.37 90.49">
  <defs>
    <style>
      .cls-1 {
        fill-rule: evenodd;
      }

      .cls-1, .cls-2, .cls-3, .cls-4 {
        stroke-width: 0px;
      }

      .cls-1, .cls-4 {
        fill: #e87204;
      }

      .cls-2 {
        fill: #005680;
      }

      .cls-3 {
        fill: #edb503;
      }
    </style>
  </defs>
  <g id="Propuesta_1" data-name="Propuesta 1">
    <g id="Capa_1-2" data-name="Capa 1-2">
      <g>
        <path class="cls-1" d="M11.98,18.89c0,2.49-1.98,4.48-4.48,4.48s-4.48-1.98-4.48-4.48,2.03-4.48,4.48-4.48,4.48,2.03,4.48,4.48h0Z"/>
        <path class="cls-1" d="M22.08,8.9c0,2.44-1.98,4.48-4.48,4.48s-4.47-2.04-4.47-4.48,2.03-4.48,4.47-4.48,4.48,1.98,4.48,4.48h0Z"/>
        <path class="cls-1" d="M37.2,4.48c0,2.44-2,4.48-4.45,4.48s-4.5-2.03-4.5-4.48,1.99-4.48,4.5-4.48,4.45,1.98,4.45,4.48h0Z"/>
        <path class="cls-1" d="M52.37,8.93c0,2.45-1.99,4.45-4.5,4.45s-4.45-2-4.45-4.45,1.99-4.5,4.45-4.5,4.5,2,4.5,4.5h0Z"/>
        <path class="cls-1" d="M62.5,18.89c0,2.49-2.03,4.48-4.47,4.48s-4.47-1.99-4.47-4.48,1.98-4.48,4.47-4.48,4.47,2.04,4.47,4.48h0Z"/>
        <path class="cls-1" d="M108.61,71.59c0-2.49-1.98-4.48-4.47-4.48s-4.48,1.98-4.48,4.48,2.03,4.48,4.48,4.48,4.47-2.03,4.47-4.48h0Z"/>
        <path class="cls-1" d="M118.71,81.58c0-2.44-1.98-4.48-4.48-4.48s-4.47,2.04-4.47,4.48,2.03,4.48,4.47,4.48,4.48-1.98,4.48-4.48h0Z"/>
        <path class="cls-1" d="M133.83,86.01c0-2.44-2-4.48-4.45-4.48s-4.5,2.04-4.5,4.48,1.99,4.48,4.5,4.48,4.45-1.98,4.45-4.48h0Z"/>
        <path class="cls-1" d="M149,81.56c0-2.45-1.99-4.45-4.5-4.45s-4.45,2-4.45,4.45,2,4.5,4.45,4.5,4.5-1.99,4.5-4.5h0Z"/>
        <g>
          <path class="cls-1" d="M159.13,71.59c0-2.49-2.03-4.48-4.47-4.48s-4.48,1.98-4.48,4.48,1.98,4.48,4.48,4.48,4.47-2.04,4.47-4.48h0Z"/>
          <path class="cls-2" d="M66.05,28.68h-2.32c-2.34,0-4.02.73-5.03,2.2-1.04,1.49-1.56,3.95-1.56,7.42v25.13c0,5.29-.5,9.86-1.51,13.71-1.02,3.83-3.4,7.02-7.18,9.53s-8.81,3.76-15.15,3.76-11.08-1.13-14.94-3.36c-3.85-2.22-6.36-5.11-7.56-8.63-1.2-3.52-1.8-8.94-1.8-16.29v-24.21c0-3.17-.43-5.48-1.28-7-.83-1.51-2.65-2.27-5.41-2.27H0v-1.7h26.75v1.7h-2.39c-1.96,0-3.54.54-4.77,1.63-1.23,1.06-1.84,3.62-1.84,7.64v27.02c0,5.13.5,9.19,1.49,12.24.99,3.03,2.74,5.34,5.2,6.93,2.48,1.58,5.6,2.36,9.43,2.36s7.07-.78,10.26-2.34,5.48-3.69,6.85-6.41c1.37-2.72,2.06-7.61,2.06-14.7v-25.1c0-4.11-.57-6.67-1.73-7.71-1.16-1.04-2.77-1.56-4.84-1.56h-2.32v-1.7h21.91v1.7h0Z"/>
        </g>
        <path class="cls-2" d="M101.71,27.96h-1.27c-1.54,0-2.55.37-3.06,1.12-.51.74-.75,2.13-.75,4.11v30.3h-.96l-23.7-28.93v22.13c0,2.36.33,3.81.97,4.39.66.56,1.6.85,2.85.85h1.26v.99h-12.51v-.99h1.25c1.11,0,2.03-.27,2.77-.84.73-.56,1.08-2.03,1.08-4.4v-25.01c-1.21-1.4-2.33-2.37-3.4-2.92s-2.29-.81-3.69-.81v-.99h9.76l21.97,26.97v-20.74c0-2.34-.33-3.8-1-4.37-.66-.58-1.6-.86-2.84-.86h-1.25v-.99h12.51v.99h0Z"/>
        <path class="cls-3" d="M142.06,55.1h2.92c1.85,0,3.41-.9,4.69-2.7,1.27-1.8,1.91-4.26,1.91-7.35,0-2.67-.57-4.95-1.7-6.88-1.13-1.93-2.77-2.9-4.9-2.9h-2.92v19.83h0ZM130.85,63.5V26.98h14.12c6.13,0,10.72,1.82,13.77,5.46,3.05,3.64,4.57,7.85,4.57,12.62,0,5.46-1.63,9.9-4.9,13.32-3.28,3.42-7.52,5.12-12.75,5.12h-14.82,0ZM108.85,48.33h5.93l-2.97-10.59-2.97,10.59h.01ZM118.8,63.5l-2.06-7.2h-9.79l-2.19,7.2h-9.09l11.29-36.52h11.85l11.42,36.52h-11.43Z"/>
        <path class="cls-2" d="M374.14,40.3h-1.71v-14.9h1.71v14.9h0ZM367.34,34.78c-.7-.04-1.23-.06-1.59-.06-1.35,0-2.41.22-3.16.67-.75.44-1.12,1.09-1.12,1.94,0,.54.2,1,.61,1.38.4.38.99.57,1.75.57,1.04,0,1.88-.38,2.55-1.13.67-.75,1-1.63,1-2.64,0-.21-.01-.44-.03-.72h0ZM369.24,40.3h-1.7c-.06-.35-.13-1.01-.19-1.99-.76,1.52-2.05,2.28-3.87,2.28-1.24,0-2.18-.33-2.85-.99-.66-.65-.99-1.44-.99-2.35,0-1.11.47-2.03,1.42-2.75s2.55-1.08,4.82-1.08c.31,0,.79.02,1.46.05,0-.87-.07-1.51-.21-1.89-.13-.39-.42-.7-.86-.94-.44-.23-1.01-.35-1.72-.35-1.74,0-2.75.67-3.04,1.99l-1.58-.27c.39-2.03,2.01-3.04,4.87-3.04,1.52,0,2.6.34,3.24,1.01.63.67.95,1.84.95,3.5v4.68c0,.78.08,1.49.24,2.14h0ZM357.18,40.3h-1.61v-7.08c0-1.02-.22-1.74-.66-2.15-.45-.41-.98-.62-1.62-.62-.87,0-1.61.35-2.2,1.05-.59.7-.89,1.62-.89,2.76v6.05h-1.71v-11.02h1.59v2.03c.89-1.56,2.05-2.34,3.48-2.34.82,0,1.52.21,2.1.64.58.43.98.91,1.19,1.44s.32,1.49.32,2.88v6.38h0v-.02ZM340.97,39.18c.87,0,1.6-.36,2.19-1.08s.88-1.84.88-3.36-.31-2.64-.93-3.32c-.62-.69-1.34-1.03-2.17-1.03s-1.57.35-2.16,1.04-.89,1.8-.89,3.3c0,1.59.3,2.73.89,3.42.59.69,1.31,1.03,2.18,1.03h.01ZM340.84,40.59c-1.52,0-2.7-.56-3.54-1.68-.85-1.12-1.27-2.51-1.27-4.17,0-1.75.47-3.15,1.43-4.2.95-1.05,2.14-1.57,3.56-1.57,1.52,0,2.72.55,3.6,1.65.87,1.1,1.31,2.48,1.31,4.13s-.47,3.12-1.42,4.21-2.17,1.63-3.66,1.63h0ZM333.47,29.27v11.02h-1.71v-11.02h1.71ZM333.53,25.4v1.9h-1.85v-1.9h1.85ZM327.86,36.43l1.55.27c-.22,1.21-.7,2.17-1.45,2.85-.75.69-1.68,1.03-2.8,1.03-1.52,0-2.68-.56-3.47-1.68-.8-1.12-1.19-2.49-1.19-4.1s.42-3.06,1.26-4.17,1.99-1.67,3.43-1.67c1.2,0,2.16.36,2.89,1.08s1.17,1.64,1.35,2.78l-1.55.29c-.29-1.82-1.17-2.73-2.64-2.73-.95,0-1.67.4-2.18,1.21-.51.8-.76,1.84-.76,3.13,0,1.41.25,2.51.76,3.29.5.78,1.21,1.17,2.13,1.17,1.42,0,2.32-.92,2.7-2.75h-.03ZM316.27,34.78c-.7-.04-1.23-.06-1.59-.06-1.35,0-2.41.22-3.15.67-.75.44-1.12,1.09-1.12,1.94,0,.54.21,1,.61,1.38s.99.57,1.75.57c1.04,0,1.88-.38,2.55-1.13.67-.75,1-1.63,1-2.64,0-.21-.01-.44-.03-.72h-.02ZM318.16,40.3h-1.7c-.06-.35-.13-1.01-.19-1.99-.76,1.52-2.05,2.28-3.87,2.28-1.24,0-2.18-.33-2.85-.99-.66-.65-.99-1.44-.99-2.35,0-1.11.47-2.03,1.42-2.75.94-.72,2.55-1.08,4.82-1.08.31,0,.79.02,1.46.05,0-.87-.07-1.51-.21-1.89-.13-.39-.42-.7-.86-.94-.44-.23-1.01-.35-1.72-.35-1.74,0-2.75.67-3.03,1.99l-1.58-.27c.39-2.03,2.01-3.04,4.87-3.04,1.52,0,2.6.34,3.24,1.01.63.67.95,1.84.95,3.5v4.68c0,.78.08,1.49.24,2.14h0ZM305.96,40.3h-1.81l-7.7-12.99.02.98c.02.37.03.69.03.94v11.07h-1.5v-14.9h2.34l7.2,12.15-.02-1.04c-.01-.41-.02-.77-.02-1.08v-10.03h1.47v14.9h-.01ZM284.13,33.53c0-.97-.3-1.74-.89-2.32-.59-.59-1.28-.88-2.06-.88-.85,0-1.55.38-2.1,1.14-.55.76-.83,1.82-.83,3.18,0,1.48.25,2.61.76,3.38s1.2,1.15,2.08,1.15c.8,0,1.51-.34,2.12-1,.61-.67.92-1.46.92-2.36v-2.29h0ZM285.84,25.4v14.9h-1.56v-1.89c-.77,1.46-1.93,2.18-3.48,2.18-1.29,0-2.35-.54-3.18-1.62-.83-1.08-1.24-2.45-1.24-4.1s.41-3.09,1.24-4.22c.82-1.13,1.91-1.69,3.27-1.69s2.41.6,3.24,1.81v-5.38h1.71ZM272.14,34.78c-.7-.04-1.23-.06-1.59-.06-1.35,0-2.41.22-3.15.67-.75.44-1.13,1.09-1.13,1.94,0,.54.21,1,.61,1.38s.99.57,1.75.57c1.04,0,1.88-.38,2.55-1.13.67-.75,1-1.63,1-2.64,0-.21-.01-.44-.03-.72h0ZM274.04,40.3h-1.7c-.06-.35-.13-1.01-.19-1.99-.76,1.52-2.04,2.28-3.87,2.28-1.24,0-2.18-.33-2.85-.99-.66-.65-.99-1.44-.99-2.35,0-1.11.47-2.03,1.42-2.75s2.56-1.08,4.82-1.08c.3,0,.79.02,1.46.05,0-.87-.07-1.51-.2-1.89-.13-.39-.42-.7-.86-.94-.44-.23-1.01-.35-1.72-.35-1.74,0-2.75.67-3.04,1.99l-1.58-.27c.39-2.03,2.01-3.04,4.87-3.04,1.52,0,2.6.34,3.24,1.01.63.67.95,1.84.95,3.5v4.68c0,.78.08,1.49.24,2.14h0ZM260.28,33.53c0-.97-.3-1.74-.89-2.32-.59-.59-1.28-.88-2.06-.88-.85,0-1.55.38-2.1,1.14s-.83,1.82-.83,3.18c0,1.48.25,2.61.76,3.38s1.2,1.15,2.08,1.15c.8,0,1.5-.34,2.12-1,.61-.67.92-1.46.92-2.36v-2.29h0ZM261.99,25.4v14.9h-1.56v-1.89c-.77,1.46-1.93,2.18-3.48,2.18-1.29,0-2.35-.54-3.18-1.62-.83-1.08-1.24-2.45-1.24-4.1s.41-3.09,1.24-4.22c.82-1.13,1.91-1.69,3.27-1.69s2.41.6,3.24,1.81v-5.38h1.71ZM249.96,29.27v11.02h-1.71v-11.02h1.71ZM250.02,25.4v1.9h-1.85v-1.9h1.85ZM236.4,37.43l1.64-.33c.36,1.39,1.51,2.08,3.45,2.08.71,0,1.31-.16,1.81-.48s.74-.77.74-1.35c0-.86-.63-1.42-1.89-1.65l-2.32-.44c-.91-.17-1.63-.51-2.17-1.02-.54-.51-.8-1.18-.8-2.02,0-.92.37-1.7,1.1-2.32.73-.62,1.72-.93,2.96-.93,2.39,0,3.87.94,4.43,2.81l-1.57.34c-.45-1.15-1.38-1.73-2.78-1.73-.7,0-1.27.14-1.72.43s-.67.69-.67,1.21c0,.82.57,1.33,1.71,1.54l2.15.38c2.25.41,3.37,1.5,3.37,3.27,0,1.01-.42,1.83-1.25,2.45-.84.62-1.95.93-3.34.93-2.61,0-4.22-1.05-4.84-3.16h0ZM232.1,40.3h-1.71v-11.02h1.5v2.57c.53-1.21,1.07-2,1.6-2.36.54-.36,1.08-.54,1.64-.54.18,0,.4.02.68.04v1.64h-.35c-.95,0-1.73.35-2.36,1.06-.63.71-.96,1.64-1,2.79v5.83h0ZM225.94,33.66c-.02-.62-.12-1.17-.31-1.65-.19-.48-.51-.89-.96-1.23-.45-.34-.99-.51-1.63-.51-.85,0-1.57.31-2.16.92s-.93,1.43-1,2.47h6.06ZM226.04,37.01l1.59.33c-.29.94-.86,1.72-1.7,2.33-.85.61-1.84.92-2.98.92-1.51,0-2.72-.53-3.65-1.59s-1.4-2.45-1.4-4.17.48-3.17,1.45-4.25,2.18-1.62,3.65-1.62,2.6.5,3.47,1.49c.88,1,1.33,2.49,1.35,4.48h-8.01c0,1.67.35,2.79,1.05,3.37.7.58,1.44.87,2.22.87,1.4,0,2.39-.72,2.97-2.17h-.01ZM217.11,29.27l-3.81,11.02h-1.78l-3.94-11.02h1.9l3.06,8.96,3.04-8.96h1.53ZM205.62,29.27v11.02h-1.71v-11.02h1.71ZM205.68,25.4v1.9h-1.85v-1.9h1.85ZM200.48,40.3h-1.61v-7.08c0-1.02-.22-1.74-.66-2.15-.45-.41-.98-.62-1.62-.62-.87,0-1.61.35-2.2,1.05-.59.7-.89,1.62-.89,2.76v6.05h-1.71v-11.02h1.59v2.03c.89-1.56,2.05-2.34,3.48-2.34.82,0,1.52.21,2.1.64s.98.91,1.19,1.44.32,1.49.32,2.88v6.38h0v-.02ZM187.01,25.4h1.55v9.72c0,1.95-.48,3.35-1.43,4.2-.96.85-2.21,1.27-3.76,1.27-1.72,0-3-.44-3.83-1.31-.83-.88-1.24-2.26-1.24-4.16v-9.72h1.87v9.72c0,1.16.14,1.98.41,2.45s.67.82,1.22,1.05c.54.22,1.12.34,1.71.34,1.15,0,2.02-.3,2.62-.91.6-.6.89-1.58.89-2.92v-9.72h-.01Z"/>
        <path class="cls-2" d="M374.14,40.3h-1.71v-14.9h1.71v14.9h0ZM367.34,34.78c-.7-.04-1.23-.06-1.59-.06-1.35,0-2.41.22-3.16.67-.75.44-1.12,1.09-1.12,1.94,0,.54.2,1,.61,1.38.4.38.99.57,1.75.57,1.04,0,1.88-.38,2.55-1.13.67-.75,1-1.63,1-2.64,0-.21-.01-.44-.03-.72h0ZM369.24,40.3h-1.7c-.06-.35-.13-1.01-.19-1.99-.76,1.52-2.05,2.28-3.87,2.28-1.24,0-2.18-.33-2.85-.99-.66-.65-.99-1.44-.99-2.35,0-1.11.47-2.03,1.42-2.75s2.55-1.08,4.82-1.08c.31,0,.79.02,1.46.05,0-.87-.07-1.51-.21-1.89-.13-.39-.42-.7-.86-.94-.44-.23-1.01-.35-1.72-.35-1.74,0-2.75.67-3.04,1.99l-1.58-.27c.39-2.03,2.01-3.04,4.87-3.04,1.52,0,2.6.34,3.24,1.01.63.67.95,1.84.95,3.5v4.68c0,.78.08,1.49.24,2.14h0ZM357.18,40.3h-1.61v-7.08c0-1.02-.22-1.74-.66-2.15-.45-.41-.98-.62-1.62-.62-.87,0-1.61.35-2.2,1.05-.59.7-.89,1.62-.89,2.76v6.05h-1.71v-11.02h1.59v2.03c.89-1.56,2.05-2.34,3.48-2.34.82,0,1.52.21,2.1.64.58.43.98.91,1.19,1.44s.32,1.49.32,2.88v6.38h0v-.02ZM340.97,39.18c.87,0,1.6-.36,2.19-1.08s.88-1.84.88-3.36-.31-2.64-.93-3.32c-.62-.69-1.34-1.03-2.17-1.03s-1.57.35-2.16,1.04-.89,1.8-.89,3.3c0,1.59.3,2.73.89,3.42.59.69,1.31,1.03,2.18,1.03h.01ZM340.84,40.59c-1.52,0-2.7-.56-3.54-1.68-.85-1.12-1.27-2.51-1.27-4.17,0-1.75.47-3.15,1.43-4.2.95-1.05,2.14-1.57,3.56-1.57,1.52,0,2.72.55,3.6,1.65.87,1.1,1.31,2.48,1.31,4.13s-.47,3.12-1.42,4.21-2.17,1.63-3.66,1.63h0ZM333.47,29.27v11.02h-1.71v-11.02h1.71ZM333.53,25.4v1.9h-1.85v-1.9h1.85ZM327.86,36.43l1.55.27c-.22,1.21-.7,2.17-1.45,2.85-.75.69-1.68,1.03-2.8,1.03-1.52,0-2.68-.56-3.47-1.68-.8-1.12-1.19-2.49-1.19-4.1s.42-3.06,1.26-4.17,1.99-1.67,3.43-1.67c1.2,0,2.16.36,2.89,1.08s1.17,1.64,1.35,2.78l-1.55.29c-.29-1.82-1.17-2.73-2.64-2.73-.95,0-1.67.4-2.18,1.21-.51.8-.76,1.84-.76,3.13,0,1.41.25,2.51.76,3.29.5.78,1.21,1.17,2.13,1.17,1.42,0,2.32-.92,2.7-2.75h-.03ZM316.27,34.78c-.7-.04-1.23-.06-1.59-.06-1.35,0-2.41.22-3.15.67-.75.44-1.12,1.09-1.12,1.94,0,.54.21,1,.61,1.38s.99.57,1.75.57c1.04,0,1.88-.38,2.55-1.13.67-.75,1-1.63,1-2.64,0-.21-.01-.44-.03-.72h-.02ZM318.16,40.3h-1.7c-.06-.35-.13-1.01-.19-1.99-.76,1.52-2.05,2.28-3.87,2.28-1.24,0-2.18-.33-2.85-.99-.66-.65-.99-1.44-.99-2.35,0-1.11.47-2.03,1.42-2.75.94-.72,2.55-1.08,4.82-1.08.31,0,.79.02,1.46.05,0-.87-.07-1.51-.21-1.89-.13-.39-.42-.7-.86-.94-.44-.23-1.01-.35-1.72-.35-1.74,0-2.75.67-3.03,1.99l-1.58-.27c.39-2.03,2.01-3.04,4.87-3.04,1.52,0,2.6.34,3.24,1.01.63.67.95,1.84.95,3.5v4.68c0,.78.08,1.49.24,2.14h0ZM305.96,40.3h-1.81l-7.7-12.99.02.98c.02.37.03.69.03.94v11.07h-1.5v-14.9h2.34l7.2,12.15-.02-1.04c-.01-.41-.02-.77-.02-1.08v-10.03h1.47v14.9h-.01ZM284.13,33.53c0-.97-.3-1.74-.89-2.32-.59-.59-1.28-.88-2.06-.88-.85,0-1.55.38-2.1,1.14-.55.76-.83,1.82-.83,3.18,0,1.48.25,2.61.76,3.38s1.2,1.15,2.08,1.15c.8,0,1.51-.34,2.12-1,.61-.67.92-1.46.92-2.36v-2.29h0ZM285.84,25.4v14.9h-1.56v-1.89c-.77,1.46-1.93,2.18-3.48,2.18-1.29,0-2.35-.54-3.18-1.62-.83-1.08-1.24-2.45-1.24-4.1s.41-3.09,1.24-4.22c.82-1.13,1.91-1.69,3.27-1.69s2.41.6,3.24,1.81v-5.38h1.71ZM272.14,34.78c-.7-.04-1.23-.06-1.59-.06-1.35,0-2.41.22-3.15.67-.75.44-1.13,1.09-1.13,1.94,0,.54.21,1,.61,1.38s.99.57,1.75.57c1.04,0,1.88-.38,2.55-1.13.67-.75,1-1.63,1-2.64,0-.21-.01-.44-.03-.72h0ZM274.04,40.3h-1.7c-.06-.35-.13-1.01-.19-1.99-.76,1.52-2.04,2.28-3.87,2.28-1.24,0-2.18-.33-2.85-.99-.66-.65-.99-1.44-.99-2.35,0-1.11.47-2.03,1.42-2.75s2.56-1.08,4.82-1.08c.3,0,.79.02,1.46.05,0-.87-.07-1.51-.2-1.89-.13-.39-.42-.7-.86-.94-.44-.23-1.01-.35-1.72-.35-1.74,0-2.75.67-3.04,1.99l-1.58-.27c.39-2.03,2.01-3.04,4.87-3.04,1.52,0,2.6.34,3.24,1.01.63.67.95,1.84.95,3.5v4.68c0,.78.08,1.49.24,2.14h0ZM260.28,33.53c0-.97-.3-1.74-.89-2.32-.59-.59-1.28-.88-2.06-.88-.85,0-1.55.38-2.1,1.14s-.83,1.82-.83,3.18c0,1.48.25,2.61.76,3.38s1.2,1.15,2.08,1.15c.8,0,1.5-.34,2.12-1,.61-.67.92-1.46.92-2.36v-2.29h0ZM261.99,25.4v14.9h-1.56v-1.89c-.77,1.46-1.93,2.18-3.48,2.18-1.29,0-2.35-.54-3.18-1.62-.83-1.08-1.24-2.45-1.24-4.1s.41-3.09,1.24-4.22c.82-1.13,1.91-1.69,3.27-1.69s2.41.6,3.24,1.81v-5.38h1.71ZM249.96,29.27v11.02h-1.71v-11.02h1.71ZM250.02,25.4v1.9h-1.85v-1.9h1.85ZM236.4,37.43l1.64-.33c.36,1.39,1.51,2.08,3.45,2.08.71,0,1.31-.16,1.81-.48s.74-.77.74-1.35c0-.86-.63-1.42-1.89-1.65l-2.32-.44c-.91-.17-1.63-.51-2.17-1.02-.54-.51-.8-1.18-.8-2.02,0-.92.37-1.7,1.1-2.32.73-.62,1.72-.93,2.96-.93,2.39,0,3.87.94,4.43,2.81l-1.57.34c-.45-1.15-1.38-1.73-2.78-1.73-.7,0-1.27.14-1.72.43s-.67.69-.67,1.21c0,.82.57,1.33,1.71,1.54l2.15.38c2.25.41,3.37,1.5,3.37,3.27,0,1.01-.42,1.83-1.25,2.45-.84.62-1.95.93-3.34.93-2.61,0-4.22-1.05-4.84-3.16h0ZM232.1,40.3h-1.71v-11.02h1.5v2.57c.53-1.21,1.07-2,1.6-2.36.54-.36,1.08-.54,1.64-.54.18,0,.4.02.68.04v1.64h-.35c-.95,0-1.73.35-2.36,1.06-.63.71-.96,1.64-1,2.79v5.83h0ZM225.94,33.66c-.02-.62-.12-1.17-.31-1.65-.19-.48-.51-.89-.96-1.23-.45-.34-.99-.51-1.63-.51-.85,0-1.57.31-2.16.92s-.93,1.43-1,2.47h6.06ZM226.04,37.01l1.59.33c-.29.94-.86,1.72-1.7,2.33-.85.61-1.84.92-2.98.92-1.51,0-2.72-.53-3.65-1.59s-1.4-2.45-1.4-4.17.48-3.17,1.45-4.25,2.18-1.62,3.65-1.62,2.6.5,3.47,1.49c.88,1,1.33,2.49,1.35,4.48h-8.01c0,1.67.35,2.79,1.05,3.37.7.58,1.44.87,2.22.87,1.4,0,2.39-.72,2.97-2.17h-.01ZM217.11,29.27l-3.81,11.02h-1.78l-3.94-11.02h1.9l3.06,8.96,3.04-8.96h1.53ZM205.62,29.27v11.02h-1.71v-11.02h1.71ZM205.68,25.4v1.9h-1.85v-1.9h1.85ZM200.48,40.3h-1.61v-7.08c0-1.02-.22-1.74-.66-2.15-.45-.41-.98-.62-1.62-.62-.87,0-1.61.35-2.2,1.05-.59.7-.89,1.62-.89,2.76v6.05h-1.71v-11.02h1.59v2.03c.89-1.56,2.05-2.34,3.48-2.34.82,0,1.52.21,2.1.64s.98.91,1.19,1.44.32,1.49.32,2.88v6.38h0v-.02ZM187.01,25.4h1.55v9.72c0,1.95-.48,3.35-1.43,4.2-.96.85-2.21,1.27-3.76,1.27-1.72,0-3-.44-3.83-1.31-.83-.88-1.24-2.26-1.24-4.16v-9.72h1.87v9.72c0,1.16.14,1.98.41,2.45s.67.82,1.22,1.05c.54.22,1.12.34,1.71.34,1.15,0,2.02-.3,2.62-.91.6-.6.89-1.58.89-2.92v-9.72h-.01Z"/>
        <path class="cls-4" d="M372.48,56.58c-.7-.04-1.23-.06-1.59-.06-1.35,0-2.41.22-3.15.67-.75.44-1.12,1.09-1.12,1.94,0,.54.2,1,.61,1.38.4.38.99.57,1.75.57,1.04,0,1.89-.38,2.55-1.12.67-.75,1-1.63,1-2.64,0-.21-.01-.44-.03-.72h0l-.02-.02ZM374.37,62.09h-1.7c-.06-.35-.13-1.01-.19-1.99-.76,1.52-2.04,2.28-3.87,2.28-1.24,0-2.18-.33-2.85-.98-.66-.65-.99-1.44-.99-2.35,0-1.12.47-2.03,1.42-2.75s2.55-1.08,4.82-1.08c.31,0,.79,0,1.46.05,0-.87-.07-1.5-.2-1.89s-.42-.7-.86-.93c-.44-.23-1.01-.35-1.72-.35-1.74,0-2.75.66-3.04,1.99l-1.58-.28c.39-2.03,2.01-3.04,4.87-3.04,1.52,0,2.6.34,3.24,1.01.63.67.95,1.84.95,3.5v4.68c0,.78.08,1.49.24,2.14h0ZM362.33,51.07v11.02h-1.71v-11.02h1.71ZM362.39,47.19v1.9h-1.85v-1.9h1.85ZM356.72,58.23l1.55.27c-.22,1.21-.7,2.17-1.45,2.85-.75.69-1.68,1.03-2.8,1.03-1.52,0-2.68-.56-3.47-1.68-.8-1.12-1.19-2.49-1.19-4.11s.42-3.06,1.26-4.17c.84-1.11,1.99-1.67,3.43-1.67,1.2,0,2.16.36,2.89,1.08.73.71,1.17,1.64,1.35,2.77l-1.55.3c-.29-1.82-1.17-2.73-2.64-2.73-.95,0-1.67.4-2.18,1.21-.51.8-.76,1.84-.76,3.12,0,1.41.25,2.51.76,3.29.5.78,1.22,1.17,2.13,1.17,1.42,0,2.32-.92,2.7-2.75h0l-.03.02ZM346.78,62.09h-1.6v-7.08c0-1.02-.22-1.74-.66-2.15-.45-.41-.98-.62-1.62-.62-.87,0-1.61.35-2.2,1.05-.59.7-.89,1.62-.89,2.76v6.05h-1.71v-11.02h1.59v2.03c.89-1.56,2.05-2.34,3.48-2.34.82,0,1.52.21,2.1.64.58.43.98.9,1.19,1.44.21.53.32,1.49.32,2.88v6.37h0ZM333.01,56.58c-.7-.04-1.23-.06-1.59-.06-1.35,0-2.41.22-3.15.67-.75.44-1.12,1.09-1.12,1.94,0,.54.21,1,.61,1.38s.99.57,1.75.57c1.04,0,1.88-.38,2.55-1.12.67-.75,1-1.63,1-2.64,0-.21-.01-.44-.03-.72h0l-.02-.02ZM334.91,62.09h-1.7c-.06-.35-.13-1.01-.19-1.99-.76,1.52-2.04,2.28-3.87,2.28-1.24,0-2.18-.33-2.85-.98-.66-.65-1-1.44-1-2.35,0-1.12.47-2.03,1.42-2.75s2.55-1.08,4.82-1.08c.3,0,.79,0,1.46.05,0-.87-.07-1.5-.2-1.89s-.42-.7-.86-.93c-.44-.23-1.01-.35-1.72-.35-1.74,0-2.75.66-3.03,1.99l-1.58-.28c.39-2.03,2.01-3.04,4.87-3.04,1.52,0,2.6.34,3.24,1.01.63.67.95,1.84.95,3.5v4.68c0,.78.08,1.49.24,2.14h0ZM324.4,60.91v1.35c-.6.08-1.13.12-1.57.12-2.13,0-3.2-1.11-3.2-3.34v-6.64h-1.95v-1.34h1.95l.08-2.77,1.59-.15v2.93h2.47v1.34h-2.47v6.92c0,1.13.59,1.7,1.77,1.7.39,0,.84-.04,1.33-.12h0ZM307.56,59.23l1.63-.34c.37,1.39,1.51,2.08,3.45,2.08.71,0,1.31-.16,1.81-.48s.74-.77.74-1.35c0-.86-.63-1.42-1.89-1.65l-2.32-.44c-.91-.17-1.63-.51-2.17-1.02-.54-.51-.8-1.18-.8-2.02,0-.92.36-1.7,1.1-2.32.73-.62,1.72-.93,2.96-.93,2.39,0,3.87.93,4.43,2.81l-1.57.34c-.45-1.15-1.38-1.72-2.78-1.72-.7,0-1.27.14-1.72.43s-.67.69-.67,1.2c0,.82.57,1.33,1.71,1.54l2.15.38c2.25.41,3.37,1.49,3.37,3.26,0,1.01-.42,1.83-1.26,2.45s-1.95.93-3.34.93c-2.61,0-4.22-1.05-4.84-3.16h.01ZM305.63,51.07v11.02h-1.71v-11.02h1.71ZM305.68,47.19v1.9h-1.85v-1.9h1.85ZM291.47,60.51h3.02c1.6,0,2.82-.55,3.65-1.66.83-1.1,1.24-2.57,1.24-4.38,0-1.47-.39-2.79-1.18-3.96-.79-1.17-2.02-1.76-3.71-1.76h-3.02v11.75h0ZM289.61,62.09v-14.9h5c2.1,0,3.74.72,4.91,2.15,1.17,1.44,1.76,3.19,1.76,5.26s-.57,3.88-1.71,5.32c-1.14,1.45-2.59,2.17-4.34,2.17h-5.62ZM276.82,56.58c-.7-.04-1.23-.06-1.59-.06-1.35,0-2.41.22-3.15.67-.75.44-1.12,1.09-1.12,1.94,0,.54.21,1,.61,1.38s.99.57,1.75.57c1.04,0,1.88-.38,2.55-1.12.67-.75,1-1.63,1-2.64,0-.21-.01-.44-.03-.72h0l-.02-.02ZM278.72,62.09h-1.7c-.06-.35-.13-1.01-.19-1.99-.76,1.52-2.05,2.28-3.87,2.28-1.24,0-2.18-.33-2.84-.98-.66-.65-.99-1.44-.99-2.35,0-1.12.47-2.03,1.42-2.75s2.55-1.08,4.82-1.08c.31,0,.79,0,1.46.05,0-.87-.07-1.5-.2-1.89s-.42-.7-.86-.93c-.44-.23-1.01-.35-1.72-.35-1.74,0-2.75.66-3.04,1.99l-1.58-.28c.39-2.03,2.01-3.04,4.87-3.04,1.52,0,2.6.34,3.24,1.01.63.67.95,1.84.95,3.5v4.68c0,.78.08,1.49.24,2.14h-.01ZM260.83,51.07l-4.42,12.31c-.64,1.77-1.66,2.66-3.07,2.66-.44,0-.93-.08-1.47-.23v-1.34c.44.1.83.15,1.15.15.54,0,1-.16,1.37-.47.37-.31.73-1.07,1.1-2.27l-3.81-10.81h1.75l2.95,8.29,3.03-8.29h1.44-.02ZM240.64,56.58c-.7-.04-1.23-.06-1.59-.06-1.35,0-2.41.22-3.15.67-.75.44-1.12,1.09-1.12,1.94,0,.54.2,1,.61,1.38.4.38.99.57,1.75.57,1.03,0,1.88-.38,2.55-1.12.67-.75,1-1.63,1-2.64,0-.21,0-.44-.03-.72h0l-.02-.02ZM242.53,62.09h-1.7c-.06-.35-.13-1.01-.19-1.99-.76,1.52-2.04,2.28-3.87,2.28-1.24,0-2.18-.33-2.85-.98-.66-.65-.99-1.44-.99-2.35,0-1.12.47-2.03,1.42-2.75s2.56-1.08,4.82-1.08c.3,0,.79,0,1.46.05,0-.87-.07-1.5-.2-1.89-.13-.39-.42-.7-.86-.93s-1.01-.35-1.72-.35c-1.74,0-2.75.66-3.04,1.99l-1.58-.28c.39-2.03,2.01-3.04,4.87-3.04,1.52,0,2.6.34,3.24,1.01.63.67.95,1.84.95,3.5v4.68c0,.78.08,1.49.24,2.14h0ZM232.03,60.91v1.35c-.6.08-1.13.12-1.57.12-2.13,0-3.2-1.11-3.2-3.34v-6.64h-1.95v-1.34h1.95l.08-2.77,1.59-.15v2.93h2.47v1.34h-2.47v6.92c0,1.13.59,1.7,1.76,1.7.39,0,.84-.04,1.33-.12h.01ZM220.64,62.09h-1.71v-11.02h1.5v2.57c.53-1.21,1.07-2,1.6-2.36.54-.36,1.08-.54,1.64-.54.18,0,.4,0,.68.05v1.63h-.35c-.95,0-1.73.35-2.36,1.06-.63.71-.96,1.63-1,2.79v5.83h0ZM214.47,55.45c-.02-.62-.12-1.17-.31-1.65-.19-.48-.51-.89-.96-1.22-.45-.34-.99-.51-1.63-.51-.85,0-1.57.31-2.16.92-.59.61-.93,1.43-1,2.47h6.06ZM214.57,58.8l1.59.33c-.29.94-.86,1.72-1.7,2.33-.85.61-1.84.92-2.98.92-1.51,0-2.72-.53-3.65-1.59s-1.4-2.45-1.4-4.16.48-3.17,1.45-4.25c.97-1.08,2.18-1.62,3.65-1.62s2.6.5,3.47,1.49c.88,1,1.33,2.49,1.35,4.48h-8.01c0,1.67.35,2.79,1.05,3.37.7.58,1.44.87,2.22.87,1.4,0,2.39-.72,2.97-2.17h-.01ZM203.88,51.07v11.02h-1.71v-11.02h1.71ZM203.93,47.19v1.9h-1.85v-1.9h1.85ZM191.87,57.77c.08,1.13.43,1.94,1.04,2.46.61.51,1.26.76,1.95.76.87,0,1.58-.38,2.11-1.14s.8-1.79.8-3.11c0-1.42-.26-2.53-.78-3.34s-1.23-1.21-2.15-1.21c-.72,0-1.37.29-1.95.87-.58.58-.92,1.33-1.03,2.24v2.48h0ZM190.99,62.09h-.83v-14.9h1.71v5.71c.79-1.43,1.87-2.14,3.25-2.14,1.26,0,2.32.5,3.18,1.49.85,1,1.28,2.45,1.28,4.34,0,1.64-.42,3.01-1.26,4.12s-1.93,1.67-3.28,1.67c-1.5,0-2.64-.7-3.44-2.12l-.61,1.82h0ZM184.74,56.34l-2.29-7.16-2.31,7.16h4.6,0ZM188.54,62.09h-1.91l-1.51-4.36h-5.51l-1.33,4.36h-1.56l4.83-14.9h2.13l4.85,14.9h0Z"/>
        <path class="cls-4" d="M372.48,56.58c-.7-.04-1.23-.06-1.59-.06-1.35,0-2.41.22-3.15.67-.75.44-1.12,1.09-1.12,1.94,0,.54.2,1,.61,1.38.4.38.99.57,1.75.57,1.04,0,1.89-.38,2.55-1.12.67-.75,1-1.63,1-2.64,0-.21-.01-.44-.03-.72h0l-.02-.02ZM374.37,62.09h-1.7c-.06-.35-.13-1.01-.19-1.99-.76,1.52-2.04,2.28-3.87,2.28-1.24,0-2.18-.33-2.85-.98-.66-.65-.99-1.44-.99-2.35,0-1.12.47-2.03,1.42-2.75s2.55-1.08,4.82-1.08c.31,0,.79,0,1.46.05,0-.87-.07-1.5-.2-1.89s-.42-.7-.86-.93c-.44-.23-1.01-.35-1.72-.35-1.74,0-2.75.66-3.04,1.99l-1.58-.28c.39-2.03,2.01-3.04,4.87-3.04,1.52,0,2.6.34,3.24,1.01.63.67.95,1.84.95,3.5v4.68c0,.78.08,1.49.24,2.14h0ZM362.33,51.07v11.02h-1.71v-11.02h1.71ZM362.39,47.19v1.9h-1.85v-1.9h1.85ZM356.72,58.23l1.55.27c-.22,1.21-.7,2.17-1.45,2.85-.75.69-1.68,1.03-2.8,1.03-1.52,0-2.68-.56-3.47-1.68-.8-1.12-1.19-2.49-1.19-4.11s.42-3.06,1.26-4.17c.84-1.11,1.99-1.67,3.43-1.67,1.2,0,2.16.36,2.89,1.08.73.71,1.17,1.64,1.35,2.77l-1.55.3c-.29-1.82-1.17-2.73-2.64-2.73-.95,0-1.67.4-2.18,1.21-.51.8-.76,1.84-.76,3.12,0,1.41.25,2.51.76,3.29.5.78,1.22,1.17,2.13,1.17,1.42,0,2.32-.92,2.7-2.75h0l-.03.02ZM346.78,62.09h-1.6v-7.08c0-1.02-.22-1.74-.66-2.15-.45-.41-.98-.62-1.62-.62-.87,0-1.61.35-2.2,1.05-.59.7-.89,1.62-.89,2.76v6.05h-1.71v-11.02h1.59v2.03c.89-1.56,2.05-2.34,3.48-2.34.82,0,1.52.21,2.1.64.58.43.98.9,1.19,1.44.21.53.32,1.49.32,2.88v6.37h0ZM333.01,56.58c-.7-.04-1.23-.06-1.59-.06-1.35,0-2.41.22-3.15.67-.75.44-1.12,1.09-1.12,1.94,0,.54.21,1,.61,1.38s.99.57,1.75.57c1.04,0,1.88-.38,2.55-1.12.67-.75,1-1.63,1-2.64,0-.21-.01-.44-.03-.72h0l-.02-.02ZM334.91,62.09h-1.7c-.06-.35-.13-1.01-.19-1.99-.76,1.52-2.04,2.28-3.87,2.28-1.24,0-2.18-.33-2.85-.98-.66-.65-1-1.44-1-2.35,0-1.12.47-2.03,1.42-2.75s2.55-1.08,4.82-1.08c.3,0,.79,0,1.46.05,0-.87-.07-1.5-.2-1.89s-.42-.7-.86-.93c-.44-.23-1.01-.35-1.72-.35-1.74,0-2.75.66-3.03,1.99l-1.58-.28c.39-2.03,2.01-3.04,4.87-3.04,1.52,0,2.6.34,3.24,1.01.63.67.95,1.84.95,3.5v4.68c0,.78.08,1.49.24,2.14h0ZM324.4,60.91v1.35c-.6.08-1.13.12-1.57.12-2.13,0-3.2-1.11-3.2-3.34v-6.64h-1.95v-1.34h1.95l.08-2.77,1.59-.15v2.93h2.47v1.34h-2.47v6.92c0,1.13.59,1.7,1.77,1.7.39,0,.84-.04,1.33-.12h0ZM307.56,59.23l1.63-.34c.37,1.39,1.51,2.08,3.45,2.08.71,0,1.31-.16,1.81-.48s.74-.77.74-1.35c0-.86-.63-1.42-1.89-1.65l-2.32-.44c-.91-.17-1.63-.51-2.17-1.02-.54-.51-.8-1.18-.8-2.02,0-.92.36-1.7,1.1-2.32.73-.62,1.72-.93,2.96-.93,2.39,0,3.87.93,4.43,2.81l-1.57.34c-.45-1.15-1.38-1.72-2.78-1.72-.7,0-1.27.14-1.72.43s-.67.69-.67,1.2c0,.82.57,1.33,1.71,1.54l2.15.38c2.25.41,3.37,1.49,3.37,3.26,0,1.01-.42,1.83-1.26,2.45s-1.95.93-3.34.93c-2.61,0-4.22-1.05-4.84-3.16h.01ZM305.63,51.07v11.02h-1.71v-11.02h1.71ZM305.68,47.19v1.9h-1.85v-1.9h1.85ZM291.47,60.51h3.02c1.6,0,2.82-.55,3.65-1.66.83-1.1,1.24-2.57,1.24-4.38,0-1.47-.39-2.79-1.18-3.96-.79-1.17-2.02-1.76-3.71-1.76h-3.02v11.75h0ZM289.61,62.09v-14.9h5c2.1,0,3.74.72,4.91,2.15,1.17,1.44,1.76,3.19,1.76,5.26s-.57,3.88-1.71,5.32c-1.14,1.45-2.59,2.17-4.34,2.17h-5.62ZM276.82,56.58c-.7-.04-1.23-.06-1.59-.06-1.35,0-2.41.22-3.15.67-.75.44-1.12,1.09-1.12,1.94,0,.54.21,1,.61,1.38s.99.57,1.75.57c1.04,0,1.88-.38,2.55-1.12.67-.75,1-1.63,1-2.64,0-.21-.01-.44-.03-.72h0l-.02-.02ZM278.72,62.09h-1.7c-.06-.35-.13-1.01-.19-1.99-.76,1.52-2.05,2.28-3.87,2.28-1.24,0-2.18-.33-2.84-.98-.66-.65-.99-1.44-.99-2.35,0-1.12.47-2.03,1.42-2.75s2.55-1.08,4.82-1.08c.31,0,.79,0,1.46.05,0-.87-.07-1.5-.2-1.89s-.42-.7-.86-.93c-.44-.23-1.01-.35-1.72-.35-1.74,0-2.75.66-3.04,1.99l-1.58-.28c.39-2.03,2.01-3.04,4.87-3.04,1.52,0,2.6.34,3.24,1.01.63.67.95,1.84.95,3.5v4.68c0,.78.08,1.49.24,2.14h-.01ZM260.83,51.07l-4.42,12.31c-.64,1.77-1.66,2.66-3.07,2.66-.44,0-.93-.08-1.47-.23v-1.34c.44.1.83.15,1.15.15.54,0,1-.16,1.37-.47.37-.31.73-1.07,1.1-2.27l-3.81-10.81h1.75l2.95,8.29,3.03-8.29h1.44-.02ZM240.64,56.58c-.7-.04-1.23-.06-1.59-.06-1.35,0-2.41.22-3.15.67-.75.44-1.12,1.09-1.12,1.94,0,.54.2,1,.61,1.38.4.38.99.57,1.75.57,1.03,0,1.88-.38,2.55-1.12.67-.75,1-1.63,1-2.64,0-.21,0-.44-.03-.72h0l-.02-.02ZM242.53,62.09h-1.7c-.06-.35-.13-1.01-.19-1.99-.76,1.52-2.04,2.28-3.87,2.28-1.24,0-2.18-.33-2.85-.98-.66-.65-.99-1.44-.99-2.35,0-1.12.47-2.03,1.42-2.75s2.56-1.08,4.82-1.08c.3,0,.79,0,1.46.05,0-.87-.07-1.5-.2-1.89-.13-.39-.42-.7-.86-.93s-1.01-.35-1.72-.35c-1.74,0-2.75.66-3.04,1.99l-1.58-.28c.39-2.03,2.01-3.04,4.87-3.04,1.52,0,2.6.34,3.24,1.01.63.67.95,1.84.95,3.5v4.68c0,.78.08,1.49.24,2.14h0ZM232.03,60.91v1.35c-.6.08-1.13.12-1.57.12-2.13,0-3.2-1.11-3.2-3.34v-6.64h-1.95v-1.34h1.95l.08-2.77,1.59-.15v2.93h2.47v1.34h-2.47v6.92c0,1.13.59,1.7,1.76,1.7.39,0,.84-.04,1.33-.12h.01ZM220.64,62.09h-1.71v-11.02h1.5v2.57c.53-1.21,1.07-2,1.6-2.36.54-.36,1.08-.54,1.64-.54.18,0,.4,0,.68.05v1.63h-.35c-.95,0-1.73.35-2.36,1.06-.63.71-.96,1.63-1,2.79v5.83h0ZM214.47,55.45c-.02-.62-.12-1.17-.31-1.65-.19-.48-.51-.89-.96-1.22-.45-.34-.99-.51-1.63-.51-.85,0-1.57.31-2.16.92-.59.61-.93,1.43-1,2.47h6.06ZM214.57,58.8l1.59.33c-.29.94-.86,1.72-1.7,2.33-.85.61-1.84.92-2.98.92-1.51,0-2.72-.53-3.65-1.59s-1.4-2.45-1.4-4.16.48-3.17,1.45-4.25c.97-1.08,2.18-1.62,3.65-1.62s2.6.5,3.47,1.49c.88,1,1.33,2.49,1.35,4.48h-8.01c0,1.67.35,2.79,1.05,3.37.7.58,1.44.87,2.22.87,1.4,0,2.39-.72,2.97-2.17h-.01ZM203.88,51.07v11.02h-1.71v-11.02h1.71ZM203.93,47.19v1.9h-1.85v-1.9h1.85ZM191.87,57.77c.08,1.13.43,1.94,1.04,2.46.61.51,1.26.76,1.95.76.87,0,1.58-.38,2.11-1.14s.8-1.79.8-3.11c0-1.42-.26-2.53-.78-3.34s-1.23-1.21-2.15-1.21c-.72,0-1.37.29-1.95.87-.58.58-.92,1.33-1.03,2.24v2.48h0ZM190.99,62.09h-.83v-14.9h1.71v5.71c.79-1.43,1.87-2.14,3.25-2.14,1.26,0,2.32.5,3.18,1.49.85,1,1.28,2.45,1.28,4.34,0,1.64-.42,3.01-1.26,4.12s-1.93,1.67-3.28,1.67c-1.5,0-2.64-.7-3.44-2.12l-.61,1.82h0ZM184.74,56.34l-2.29-7.16-2.31,7.16h4.6,0ZM188.54,62.09h-1.91l-1.51-4.36h-5.51l-1.33,4.36h-1.56l4.83-14.9h2.13l4.85,14.9h0Z"/>
      </g>
    </g>
  </g>
</svg>